<svg width="24" height="31" viewBox="0 0 24 31" fill="none" xmlns="http://www.w3.org/2000/svg">
<path d="M7.54255 10.6896C6.21857 12.1694 6.6128 15.4944 8.50951 18.3433C10.4062 21.1922 13.1137 22.4763 14.7054 21.3963M19.0344 27.8509C18.5758 28.3527 18.0778 28.8053 17.5468 29.203C15.3674 31.0484 10.1831 27.5617 5.64584 20.8265C1.1086 14.0913 -0.393909 7.48362 1.66645 5.51918C2.12242 5.01303 2.63519 4.57836 3.19127 4.22657M19.4658 26.9069L15.3005 20.6819C15.191 20.5076 15.1432 20.2924 15.1666 20.0795C15.1901 19.8666 15.2831 19.6717 15.4269 19.5339L17.3237 17.8841C17.4764 17.7624 17.6635 17.7105 17.8481 17.7389C18.0326 17.7672 18.2011 17.8737 18.3204 18.0372L22.4931 24.2536C22.6018 24.4289 22.6484 24.6448 22.6236 24.8578C22.5987 25.0707 22.5043 25.2651 22.3593 25.4017L20.4997 27.06C20.3464 27.1842 20.1576 27.2375 19.9713 27.2091C19.7851 27.1807 19.6151 27.0727 19.4956 26.9069H19.4658ZM8.25662 10.1794L4.09128 3.95443C3.98394 3.7808 3.93738 3.5675 3.96078 3.35657C3.98419 3.14563 4.07585 2.95237 4.21771 2.81489L6.107 1.15658C6.26033 1.03235 6.44911 0.979065 6.63539 1.00746C6.82167 1.03586 6.99165 1.14382 7.11115 1.30965L11.2839 7.53464C11.3904 7.70927 11.4357 7.9232 11.4109 8.13419C11.3861 8.34518 11.2931 8.53787 11.15 8.67418L9.26077 10.375C9.10744 10.4992 8.91866 10.5525 8.73238 10.5241C8.5461 10.4957 8.37612 10.3878 8.25662 10.2219V10.1794Z" stroke="#000D16" stroke-width="1.44" stroke-linecap="round" stroke-linejoin="round"/>
</svg>
