<?xml version="1.0" encoding="UTF-8"?>
<svg version="1.1" viewBox="0 0 898 1774" width="640" height="1280" xmlns="http://www.w3.org/2000/svg">
<path transform="translate(691)" d="m0 0h33l24 2 24 4 26 7 10 4 1 2h-20l-27 2-24 4-30 8-26 10-25 12-19 11-19 13-14 11-10 9-8 7-22 22-11 14-9 12-8 13-12 23-8 23-4 20-1 10v28l3 21 5 19 7 20 12 25 9 16 10 15 12 17 13 16 9 11 9 10 7 8 7 7 7 8 19 19 2 1v2l4 2 11 11 8 7 13 12 11 9 11 10 11 9 15 13 11 9 13 11 11 9 13 12 17 16 57 57 8 7 1 2-5-2-16-11-27-18-17-11-26-16-24-14-22-12-19-10-23-11-31-13-36-12-21-5-18-3-9-1h-31l-18 3-16 5-14 7-11 8-10 9-8 9-10 15-9 19-7 19-5 19-4 20-4 31-2 34v48l2 42 4 43 7 52 9 63 4 34 3 35 1 24v28l-2 33-4 30-6 28-6 21-9 24-9 20-11 21-12 19-3 2 3-12 4-15 5-30 2-23v-58l-2-28-4-38-7-48-10-54-7-35-8-36-13-56-15-64-9-37-12-53-7-30-13-65-4-21-6-43-3-27-2-29v-36l3-40 5-34 6-31 9-34 12-35 10-23 12-25 10-19 13-21 8-12 10-14 10-13 11-13 9-11 33-33 5-4h2l1-3 28-22 23-16 29-17 19-10 8-4 13-5 20-8 24-8 32-8 23-4z" fill="#588634"/>
<path transform="translate(195,1311)" d="m0 0h42l31 2 29 4 29 6 25 7 22 8 20 9 22 12 11 7 17 13 9 7v2l4 2 19 19 10 13 11 16 12 22 8 18 7 22 5 23 3 26v30l-3 27-6 26-8 24-7 16-3-1-12-17-14-19-13-16-8-10-10-11-6-7v-2h-2l-7-8-30-30-8-7-13-11-17-13-20-14-21-13-20-11-23-10-18-7-28-8-23-5-9-2v2l6 2 24 14 18 11 12 8 16 11 26 20 13 11 8 7 20 18 31 31 7 8 1 3h2l9 11 12 14 13 17 10 13 13 19 10 14 6 10-1 4-12 11-14 11-11 9-17 12-20 12-19 9-24 8-16 3-18 1-21-3-16-5-16-8-11-7-11-9-12-11-11-12-8-10-13-18-12-19-12-21-7-12-8-16-15-31-12-26-13-29-15-33-11-24-12-26-20-38-10-17-14-21-8-11-9-11-10-11 2-2 34-9 37-8 26-5 34-5 27-3z" fill="#74A740"/>
<path transform="translate(739,983)" d="m0 0h33l32 2 33 4 45 8 15 4-2 5-8 9-13 20-8 14-8 16-12 26-8 20-11 27-11 28-11 27-12 27-10 21-11 20-12 19-13 16-15 15-13 9-14 7-14 4-8 1h-15l-20-4-16-6-16-8-14-8-14-10-16-12-5-4 1-5 8-14 11-17 7-10 10-14 11-14 8-10 9-11h2l2-4 15-16 15-15 8-7 10-9 14-11 16-12 18-12 16-10h2v-2l-18 5-17 5-20 8-16 8-11 6-17 11-12 9-10 8-14 12-10 10h-2l-2 4h-2l-2 4-8 8-6 8h-2l-2 4-11 13-11 15-14 20-7 11-4 6h-2l-8-17-8-24-4-21-1-9v-33l3-20 4-16 7-19 8-16 7-11 12-16 11-12h2l1-3 11-9 12-9 16-10 21-10 12-5 18-6 15-4 26-5 26-3z" fill="#74A740"/>
<path transform="translate(138,1019)" d="m0 0 28 2 35 5 32 7 36 12 24 11 17 10 14 10 12 11 7 6 9 11 8 11 8 14 8 22 3 15 1 8v18l-4 25-7 19-8 16-11 16-8 9h-2l-12-36-8-20-11-23-12-20-13-18-10-11v-2l-3-1v-2h-2l-5-5-11-10-17-12-11-6 6 8 9 10 15 20 13 20 13 23 14 31 6 16 7 22 5 20-12 6-24 8-20 4h-21l-16-4-13-7-10-9-9-12-8-16-7-20-5-24-3-18-4-37-5-51-5-35-6-25-6-17z" fill="#74A740"/>
<path transform="translate(691)" d="m0 0h33l24 2 24 4 26 7 10 4 1 2h-20l-27 2-13 2h-6l1-2h-14l4-1-1-4 1-12-2-1-7 1-4-1-12-1-22 1h19l3 3 2 8h3l1 4h2v5l-35 7-14 4-15 4-20 7-22 9-16 7-15 8-11 6-10 6-16 10-11 8h-2v2l-5 3v3h-4l-4 3 1 2 1 5-1-3-3 1v-3l-1 2-7 4 2 5-1 2-4-1-3 1h-2l-1 5-1 3-5 1-2 4-7 4v2h-2l-1 2h-3l-4 5-2 2-6 5-2 5h-2l-1 2-5 5-2 4-4 6-4 1-3 5-6 7-14 19-14 21-1 3-6 9-12 21-8 16-5 11v2h-2l-3 9-7 16-9 23-11 33v3h-2l-2 10-7 26-5 22-1 6-3 14-4 23v8h-1l-3 21v10h-2v9l-2 23v23h-1v8l-1 6v64l1 20 1 8 2 2 3-5 3-1-1 4 1 1 1 12-2 5h-3l-3-6-1-4 2 29 1 11 1 15-2-4-9-40-6-27-10-52-4-23-5-35-3-27-2-29v-36l3-40 5-34 6-31 9-34 12-35 10-23 12-25 10-19 13-21 8-12 10-14 10-13 11-13 9-11 33-33 5-4h2l1-3 28-22 23-16 29-17 19-10 8-4 13-5 20-8 24-8 32-8 23-4z" fill="#75A841"/>
<path transform="translate(445,634)" d="m0 0h3l8 16 15 29 12 25 8 16 14 33 11 28 12 36 8 31 5 27 3 23 1 17v25l-2 25-4 23-7 25-9 24-8 16-9 16-12 18-10 13-5 7-3-1 5-30 3-28 1-20v-29l-2-31-4-29-6-31-9-33-13-36-10-24-3-17-3-37v-55l3-33 5-29z" fill="#446C36"/>
<path transform="translate(587,429)" d="m0 0 8 6 16 17 14 15 16 16 2 1v2l4 2 11 11 8 7 13 12 11 9 11 10 11 9 15 13 11 9 13 11 11 9 13 12 17 16 57 57 8 7 1 2-5-2-16-11-27-18-17-11-26-16-24-14-22-12-19-10-23-11-31-13-36-12-21-5-10-2v-2l-15-1-25-2 2-2h14l2 1 1-4 2-1-1-5 4-5 1-11 9-12-1-5 4-12 3-5 2-8 2-4 2-9 7-12 3-3-4-5-6-7z" fill="#446C36"/>
<path transform="translate(421,901)" d="m0 0h2l2 11 2 7 10 70 4 34 3 35 1 24v28l-2 33-4 30-6 28-6 21-9 24-9 20-11 21-12 19-3 2 3-12 4-15 5-30 2-23v-58l-2-28-4-38-7-48-4-23-1-13h2l1 5 3-1 2 2-2 7 2 1-1 5 3-2 2-10-3-5 2-13 3-7 4-8 2-8 2-6h2l1-5h2l1 5 2-1-1-4-1-6 2-6 2-10 4-11 6-5v-5l-1-3h3l-1-8 1-7-2-1z" fill="#456E37"/>
<path transform="translate(638,184)" d="m0 0 15 1 12 4 9 6 7 7 8 13 4 12 2 11v18l-3 12-7 11-10 8-16 7-27 5-16 1h-21l-14-2-13-5-6-4-7-8-3-9v-12l2-10 6-14 10-14 15-15 10-7 10-6 13-6 11-3z" fill="#446C37"/>
<path transform="translate(445,634)" d="m0 0h3l8 16 15 29 12 25 8 16 10 23-1 3h-1l-2 11-1 3v9l-1 11-3 5-1 17-3 16-1 19-3 4-1 21-3 16-1 14-3 10-2-4-2-3 1 9-2-4-7-25-13-36-10-24-3-17-3-37v-55l3-33 5-29z" fill="#588734"/>
<path transform="translate(229,1351)" d="m0 0h29l21 2 26 4 26 6 24 8 24 11 20 12 16 12 10 9 8 7 14 15 12 16 10 15 9 16 8 16 6 14 2 5-1 3-3-5-2-1v-3l-4-1-6-7-5-5v-2h-2v-2l-5-2-6-7-6-4v-2l-4-2-9-6-7-8-9-6-10-5v-2h-3l-4-5-14-8-6-5-10-4-5-4-4-1-6-5-10-3-14-7-15-6-8-5-5-5-7-3-14-9-15-8-6-3-11-6-14-7-3-1v-2l-12-3z" fill="#9BD063"/>
<path transform="translate(533,851)" d="m0 0h2l4 12 5 35 1 17v25l-2 25-4 23-7 25-9 24-8 16-8 14-3-1v-13l3-15 2-18 2-8 1-13 2-9 3-25 2-11 2-19 2-10 2-21 3-9 1-19 4-16z" fill="#375936"/>
<path transform="translate(445,634)" d="m0 0h3l8 16 9 17-1 3-3-3-2 1 1 3-4 13v9l-3 9-2 12 1 3v9l-2 7-2 2-1 6 1 1-1 8-3 11-2 12v5l2 1-3 15 1 7-3 3-3-27-1-16v-55l3-33 5-29z" fill="#75A941"/>
<path transform="translate(267,1069)" d="m0 0 6 1 19 9 15 10 10 8 9 8 9 11 9 14 8 17 5 17 1 5v7h-1l-2-6-9-16-7-9-3-6v-2l-5-2-4-8-10-10-3-4v-2l-4-2-13-13-2-1v-2l-4-2-4-5-5-5-1-3h-3v-2h-2v-2l-4-2-5-2z" fill="#9BD063"/>
<path transform="translate(691)" d="m0 0h33l24 2 24 4 26 7 10 4 1 2h-20l-27 2-13 2h-6l1-2h-14l4-1-1-4 1-12-2-1-7 1-4-1-12-1-27 1-8 1-3-2z" fill="#78AB44"/>
<path transform="translate(709,1)" d="m0 0 17 1 3 1 4-1 4 2h-3l1 3-1 10 1 3h10l-2 4-12-1-5 2h-6v-2l-3-1v-4l-3 1v-5h-3l-4-9-1-1h-23l4-2z" fill="#588634"/>
<path transform="translate(788,616)" d="m0 0 5 1 56 56 8 7 1 2-5-2-16-11-33-22 1-2h2l2 3h3l2 3h2l2-4-21-21v-2l-4-2v-2l-4-2z" fill="#4D743D"/>
<path transform="translate(739,3)" d="m0 0 20 2 24 5 12 2 13 5 1 2h-20l-27 2h-10l-6-1v-1l18-2 1-2v2h6l-1-7h-8v-2l-22-3z" fill="#608F39"/>
<path transform="translate(533,539)" d="m0 0 23 1 25 3v1l-17-1h-31l-19 2-8 1 3-2 11-3z" fill="#699844"/>
<path transform="translate(418,855)" d="m0 0h1l4 34 2 16v7h-1l-1-11h-2l-2-8v-18l-1-8z" fill="#71A048"/>
<path transform="translate(440,804)" d="m0 0 1 3h2l2 9 3 5 2 1 1 11 1 6-2-2-9-22-1-4z" fill="#7BAF47"/>
<path transform="translate(373,994)" d="m0 0 2 2 2 4 2 6 1 14v8h-1l-6-31z" fill="#689644"/>
<path transform="translate(764,621)" d="m0 0 7 1 6 5 5 2 6 4 2 4-5-2-21-13z" fill="#5B8543"/>
<path transform="translate(585,207)" d="m0 0 4 1-18 18v-3l3-5z" fill="#4B7339"/>
<path transform="translate(312,637)" d="m0 0 5 1-1 11-2 3-3-1v-13z" fill="#74A740"/>
<path transform="translate(736,21)" d="m0 0m-5 1 7 1v2l-12 3h-9l1-2z" fill="#58853C"/>
<path transform="translate(465,728)" d="m0 0h1v11l1 3-3 9-2-2v-8z" fill="#74A740"/>
<path transform="translate(803,16)" d="m0 0 5 1 1 2h-31l1-2z" fill="#85B94F"/>
<path transform="translate(739,3)" d="m0 0 20 2 12 3v1l-9 1v-2l-22-3z" fill="#588634"/>
<path transform="translate(443,298)" d="m0 0h4l1 7-5 2-3-1z" fill="#74A740"/>
<path transform="translate(712,14)" d="m0 0h2l1 4h2v5h-7l-2-2 1-5z" fill="#6B9C3C"/>
<path transform="translate(456,788)" d="m0 0 2 1v13l-3 8h-1v-10z" fill="#74A740"/>
<path transform="translate(764,15)" d="m0 0 1 2h5v2l-12 2-12-1v-1l18-2z" fill="#588635"/>
<path transform="translate(462,753)" d="m0 0h1v11l-3 17h-2v-7l1-4h2l-1-6 1-4z" fill="#74A740"/>
<path transform="translate(470,700)" d="m0 0h1v15h-2l-1 8h-2l1-9 2-13z" fill="#72A53F"/>
<path transform="translate(845,671)" d="m0 0 4 2 8 7 1 2-5-2-10-7z" fill="#72A24A"/>
<path transform="translate(531,840)" d="m0 0h3l3 14-1 3-1-6h-2l-2-5z" fill="#5E8648"/>
<path transform="translate(448,821)" d="m0 0 2 1 1 11 1 6-2-2-2-5-2-10z" fill="#76A944"/>
<path transform="translate(715,1)" d="m0 0h25v1l-11 2-9-1-5-1z" fill="#7BAE47"/>
<path transform="translate(420,944)" d="m0 0 5 1-1 5h-5v-5z" fill="#588634"/>
<path transform="translate(494,729)" d="m0 0 2 3 5 11-1 3-1-4-3-1-2-8z" fill="#6B9A44"/>
<path transform="translate(504,1066)" d="m0 0 2 1-2 5-4 6h-1v-5h2l1-5z" fill="#557E3F"/>
<path transform="translate(438,791)" d="m0 0 1 3h2l1 7-3 3z" fill="#83B64D"/>
<path transform="translate(788,616)" d="m0 0 5 1 6 7-5-1-1-3-4-2z" fill="#517940"/>
<path transform="translate(583,422)" d="m0 0 5 4 5 6-1 2-7-6v-2l-3-1z" fill="#699943"/>
<path transform="translate(705,32)" d="m0 0 3 1-11 4h-2v-3z" fill="#74A24C"/>
<path transform="translate(480,233)" d="m0 0h4v5l-4 1-1-4z" fill="#74A740"/>
<path transform="translate(716,4)" d="m0 0h2l1 8v5l-2 1z" fill="#74A740"/>
</svg>
