<svg width="22" height="22" viewBox="0 0 22 22" fill="none" xmlns="http://www.w3.org/2000/svg">
	<path d="M15 6.99999V12C15 12.7956 15.3161 13.5587 15.8787 14.1213C16.4413 14.6839 17.2044 15 18 15C18.7957 15 19.5587 14.6839 20.1213 14.1213C20.6839 13.5587 21 12.7956 21 12V11C20.9999 8.74302 20.2362 6.55247 18.8333 4.78452C17.4303 3.01657 15.4706 1.77521 13.2726 1.26229C11.0747 0.749359 8.76794 0.995031 6.72736 1.95936C4.68677 2.92368 3.03241 4.54994 2.03327 6.57371C1.03413 8.59748 0.748975 10.8997 1.22418 13.1061C1.69938 15.3125 2.90699 17.2932 4.65064 18.7263C6.39429 20.1593 8.57144 20.9603 10.8281 20.9991C13.0847 21.0379 15.2881 20.3122 17.08 18.94M15 11C15 13.2091 13.2092 15 11 15C8.79087 15 7.00001 13.2091 7.00001 11C7.00001 8.79085 8.79087 6.99999 11 6.99999C13.2092 6.99999 15 8.79085 15 11Z" stroke="#228B22" stroke-width="1.5" stroke-linecap="round" stroke-linejoin="round"/>
</svg>
