<svg width="22" height="20" viewBox="0 0 22 20" fill="none" xmlns="http://www.w3.org/2000/svg">
<path d="M1.29004 5.77998V15.51C1.29004 17.41 2.64004 18.19 4.28004 17.25L6.63004 15.91C7.14004 15.62 7.99004 15.59 8.52004 15.86L13.77 18.49C14.3 18.75 15.15 18.73 15.66 18.44L19.99 15.96C20.54 15.64 21 14.86 21 14.22V4.48998C21 2.58998 19.65 1.80998 18.01 2.74998L15.66 4.08998C15.15 4.37998 14.3 4.40998 13.77 4.13998L8.52004 1.51998C7.99004 1.25998 7.14004 1.27998 6.63004 1.56998L2.30004 4.04998C1.74004 4.36998 1.29004 5.14998 1.29004 5.77998Z" stroke="#e16625" stroke-width="1.5" stroke-linecap="round" stroke-linejoin="round"/>
<path d="M7.56006 2V15" stroke="#e16625" stroke-width="1.5" stroke-linecap="round" stroke-linejoin="round"/>
<path d="M14.73 4.62V18" stroke="#e16625" stroke-width="1.5" stroke-linecap="round" stroke-linejoin="round"/>
</svg>
