<svg width="22" height="22" viewBox="0 0 22 22" fill="none" xmlns="http://www.w3.org/2000/svg">
<path d="M10.02 18.5H6.5C5.88 18.5 5.33 18.48 4.84 18.41C2.21 18.12 1.5 16.88 1.5 13.5V8.5C1.5 5.12 2.21 3.88 4.84 3.59C5.33 3.52 5.88 3.5 6.5 3.5H9.96" stroke="#292D32" stroke-width="1.5" stroke-linecap="round" stroke-linejoin="round"/>
<path d="M14.02 3.5H15.5C16.12 3.5 16.67 3.52 17.16 3.59C19.79 3.88 20.5 5.12 20.5 8.5V13.5C20.5 16.88 19.79 18.12 17.16 18.41C16.67 18.48 16.12 18.5 15.5 18.5H14.02" stroke="#292D32" stroke-width="1.5" stroke-linecap="round" stroke-linejoin="round"/>
<path d="M14 1V21" stroke="#292D32" stroke-width="1.5" stroke-linecap="round" stroke-linejoin="round"/>
<path d="M10.0946 11H10.1036" stroke="#292D32" stroke-width="2" stroke-linecap="round" stroke-linejoin="round"/>
<path d="M6.0946 11H6.10359" stroke="#292D32" stroke-width="2" stroke-linecap="round" stroke-linejoin="round"/>
</svg>
