<svg width="32" height="32" viewBox="0 0 32 32" fill="none" xmlns="http://www.w3.org/2000/svg">
    <path d="M30.955 25.495C30.955 26.035 30.835 26.59 30.58 27.13C30.325 27.67 29.995 28.18 29.56 28.66C28.825 29.47 28.015 30.055 27.1 30.43C26.2 30.805 25.225 31 24.175 31C22.645 31 21.01 30.64 19.285 29.905C17.56 29.17 15.835 28.18 14.125 26.935C12.4 25.675 10.765 24.28 9.205 22.735C7.66 21.175 6.265 19.54 5.02 17.83C3.79 16.12 2.8 14.41 2.08 12.715C1.36 11.005 1 9.37 1 7.81C1 6.79 1.18 5.815 1.54 4.915C1.9 4 2.47 3.16 3.265 2.41C4.225 1.465 5.275 1 6.385 1C6.805 1 7.225 1.09 7.6 1.27C7.99 1.45 8.335 1.72 8.605 2.11L12.085 7.015C12.355 7.39 12.55 7.735 12.685 8.065C12.82 8.38 12.895 8.695 12.895 8.98C12.895 9.34 12.79 9.7 12.58 10.045C12.385 10.39 12.1 10.75 11.74 11.11L10.6 12.295C10.435 12.46 10.36 12.655 10.36 12.895C10.36 13.015 10.375 13.12 10.405 13.24C10.45 13.36 10.495 13.45 10.525 13.54C10.795 14.035 11.26 14.68 11.92 15.46C12.595 16.24 13.315 17.035 14.095 17.83C14.905 18.625 15.685 19.36 16.48 20.035C17.26 20.695 17.905 21.145 18.415 21.415C18.49 21.445 18.58 21.49 18.685 21.535C18.805 21.58 18.925 21.595 19.06 21.595C19.315 21.595 19.51 21.505 19.675 21.34L20.815 20.215C21.19 19.84 21.55 19.555 21.895 19.375C22.24 19.165 22.585 19.06 22.96 19.06C23.245 19.06 23.545 19.12 23.875 19.255C24.205 19.39 24.55 19.585 24.925 19.84L29.89 23.365C30.28 23.635 30.55 23.95 30.715 24.325C30.865 24.7 30.955 25.075 30.955 25.495Z" stroke="#0050AF" stroke-width="2" stroke-miterlimit="10" />
</svg>