<svg width="20" height="22" viewBox="0 0 20 22" fill="none" xmlns="http://www.w3.org/2000/svg">
<path d="M15 9L10 9" stroke="#FFFFFF" stroke-width="1.5" stroke-miterlimit="10" stroke-linecap="round" stroke-linejoin="round"/>
<path d="M15 13L7 13" stroke="#FFFFFF" stroke-width="1.5" stroke-miterlimit="10" stroke-linecap="round" stroke-linejoin="round"/>
<path d="M12 21L6 21C2.67 20.82 1 19.59 1 15.01L1 7" stroke="#FFFFFF" stroke-width="1.5" stroke-miterlimit="10" stroke-linecap="round" stroke-linejoin="round"/>
<path d="M19 13.99L19 7.01999C19 3.00999 18 0.99999 13 0.99999L10 0.99999C9.83 0.99999 7.16 0.999989 7 0.999989" stroke="#FFFFFF" stroke-width="1.5" stroke-miterlimit="10" stroke-linecap="round" stroke-linejoin="round"/>
<path d="M1 7L7 1L7 4C7 6 6 7 4 7L1 7Z" stroke="#FFFFFF" stroke-width="1.5" stroke-linecap="round" stroke-linejoin="round"/>
<path d="M19 18.5H14" stroke="#FFFFFF" stroke-width="1.5" stroke-miterlimit="10" stroke-linecap="round" stroke-linejoin="round"/>
<path d="M16.5601 21V16" stroke="#FFFFFF" stroke-width="1.5" stroke-miterlimit="10" stroke-linecap="round" stroke-linejoin="round"/>
</svg>
