<svg width="20" height="22" viewBox="0 0 20 22" fill="none" xmlns="http://www.w3.org/2000/svg">
<path d="M16.0391 14.573L12.4991 18.1131C12.3591 18.2531 12.2291 18.513 12.1991 18.703L12.0091 20.053C11.9391 20.543 12.2791 20.883 12.7691 20.813L14.1191 20.623C14.3091 20.593 14.5791 20.463 14.7091 20.323L18.2491 16.783C18.8591 16.173 19.1491 15.463 18.2491 14.563C17.3591 13.673 16.6491 13.963 16.0391 14.573Z" stroke="#292D32" stroke-width="1.5" stroke-miterlimit="10" stroke-linecap="round" stroke-linejoin="round"/>
<path d="M15.5293 15.083C15.8293 16.163 16.6693 17.003 17.7493 17.303" stroke="#292D32" stroke-width="1.5" stroke-miterlimit="10" stroke-linecap="round" stroke-linejoin="round"/>
<path d="M10 21L5.09091 21C2.36636 20.82 0.999999 19.59 0.999999 15.01L1 7" stroke="#292D32" stroke-width="1.5" stroke-miterlimit="10" stroke-linecap="round" stroke-linejoin="round"/>
<path d="M19 11L19 5.63433C19 2.54734 18 1 13 1L10 1C9.83 1 7.16 1 7 1" stroke="#292D32" stroke-width="1.5" stroke-miterlimit="10" stroke-linecap="round" stroke-linejoin="round"/>
<path d="M1 7L7 1L7 4C7 6 6 7 4 7L1 7Z" stroke="#292D32" stroke-width="1.5" stroke-linecap="round" stroke-linejoin="round"/>
<path d="M15 9L10 9" stroke="#292D32" stroke-width="1.5" stroke-miterlimit="10" stroke-linecap="round" stroke-linejoin="round"/>
<path d="M15 13L7 13" stroke="#292D32" stroke-width="1.5" stroke-miterlimit="10" stroke-linecap="round" stroke-linejoin="round"/>
</svg>
