<svg width="22" height="23" viewBox="0 0 22 23" fill="none" xmlns="http://www.w3.org/2000/svg">
<path d="M8.16 10.37C8.06 10.36 7.94 10.36 7.83 10.37C5.45 10.29 3.56 8.34 3.56 5.94C3.56 3.49 5.54 1.5 8 1.5C10.45 1.5 12.44 3.49 12.44 5.94C12.43 8.34 10.54 10.29 8.16 10.37Z" stroke="#292D32" stroke-width="1.5" stroke-linecap="round" stroke-linejoin="round"/>
<path d="M15.41 3.5C17.35 3.5 18.91 5.07 18.91 7C18.91 8.89 17.41 10.43 15.54 10.5C15.46 10.49 15.37 10.49 15.28 10.5" stroke="#292D32" stroke-width="1.5" stroke-linecap="round" stroke-linejoin="round"/>
<path d="M3.16 14.06C0.740001 15.68 0.740001 18.32 3.16 19.93C5.91 21.77 10.42 21.77 13.17 19.93C15.59 18.31 15.59 15.67 13.17 14.06C10.43 12.23 5.92 12.23 3.16 14.06Z" stroke="#292D32" stroke-width="1.5" stroke-linecap="round" stroke-linejoin="round"/>
<path d="M17.34 19.5C18.06 19.35 18.74 19.06 19.3 18.63C20.86 17.46 20.86 15.53 19.3 14.36C18.75 13.94 18.08 13.66 17.37 13.5" stroke="#292D32" stroke-width="1.5" stroke-linecap="round" stroke-linejoin="round"/>
</svg>
