<svg width="21" height="22" viewBox="0 0 21 22" fill="none" xmlns="http://www.w3.org/2000/svg">
<path d="M10.0001 11C12.7615 11 15.0001 8.76142 15.0001 6C15.0001 3.23858 12.7615 1 10.0001 1C7.23864 1 5.00006 3.23858 5.00006 6C5.00006 8.76142 7.23864 11 10.0001 11Z" stroke="#0FA9FF" stroke-width="1.5" stroke-linecap="round" stroke-linejoin="round"/>
<path d="M1.41006 21C1.41006 17.13 5.26006 14 10.0001 14C10.9601 14 11.8901 14.13 12.7601 14.37" stroke="#0FA9FF" stroke-width="1.5" stroke-linecap="round" stroke-linejoin="round"/>
<path d="M20.0001 17C20.0001 17.32 19.9601 17.63 19.8801 17.93C19.7901 18.33 19.6301 18.72 19.4201 19.06C18.7301 20.22 17.4601 21 16.0001 21C14.9701 21 14.0401 20.61 13.3401 19.97C13.0401 19.71 12.78 19.4 12.58 19.06C12.21 18.46 12.0001 17.75 12.0001 17C12.0001 15.92 12.4301 14.93 13.1301 14.21C13.8601 13.46 14.8801 13 16.0001 13C17.1801 13 18.2501 13.51 18.9701 14.33C19.6101 15.04 20.0001 15.98 20.0001 17Z" stroke="#0FA9FF" stroke-width="1.5" stroke-miterlimit="10" stroke-linecap="round" stroke-linejoin="round"/>
<path d="M17.4901 16.98H14.5101" stroke="#0FA9FF" stroke-width="1.5" stroke-miterlimit="10" stroke-linecap="round" stroke-linejoin="round"/>
<path d="M16.0001 15.52V18.51" stroke="#0FA9FF" stroke-width="1.5" stroke-miterlimit="10" stroke-linecap="round" stroke-linejoin="round"/>
</svg>
