<svg width="21" height="22" viewBox="0 0 21 22" fill="none" xmlns="http://www.w3.org/2000/svg">
<path d="M10 11C12.7614 11 15 8.76142 15 6C15 3.23858 12.7614 1 10 1C7.23858 1 5 3.23858 5 6C5 8.76142 7.23858 11 10 11Z" stroke="#292D32" stroke-width="1.5" stroke-linecap="round" stroke-linejoin="round"/>
<path d="M17.2101 14.74L13.67 18.2801C13.53 18.4201 13.4 18.68 13.37 18.87L13.18 20.22C13.11 20.71 13.45 21.05 13.94 20.98L15.29 20.79C15.48 20.76 15.75 20.63 15.88 20.49L19.42 16.95C20.03 16.34 20.32 15.63 19.42 14.73C18.53 13.84 17.8201 14.13 17.2101 14.74Z" stroke="#292D32" stroke-width="1.5" stroke-miterlimit="10" stroke-linecap="round" stroke-linejoin="round"/>
<path d="M16.7001 15.25C17.0001 16.33 17.84 17.17 18.92 17.47" stroke="#292D32" stroke-width="1.5" stroke-miterlimit="10" stroke-linecap="round" stroke-linejoin="round"/>
<path d="M1.40991 21C1.40991 17.13 5.25994 14 9.99994 14C11.0399 14 12.0399 14.15 12.9699 14.43" stroke="#292D32" stroke-width="1.5" stroke-linecap="round" stroke-linejoin="round"/>
</svg>
