<svg width="32" height="32" viewBox="0 0 32 32" fill="none" xmlns="http://www.w3.org/2000/svg">
    <path d="M8.35 28.9C10.6 30.25 13.3 31 16 31C24.25 31 31 24.25 31 16C31 7.75 24.25 1 16 1C7.75 1 1 7.75 1 16C1 18.7 1.75 21.25 2.95 23.5L1.44044 29.306C1.24572 30.0549 1.93892 30.7317 2.68299 30.5191L8.35 28.9Z" stroke="#0050AF" stroke-width="2" stroke-miterlimit="10" stroke-linecap="round" stroke-linejoin="round" />
    <path d="M22.75 20.2728C22.75 20.5158 22.6959 20.7655 22.581 21.0085C22.4661 21.2515 22.3174 21.481 22.1213 21.697C21.7901 22.0615 21.425 22.3248 21.0126 22.4935C20.607 22.6623 20.1676 22.75 19.6944 22.75C19.0049 22.75 18.268 22.588 17.4906 22.2573C16.7132 21.9265 15.9358 21.481 15.1651 20.9208C14.3877 20.3538 13.6509 19.726 12.9478 19.0308C12.2515 18.3288 11.6228 17.593 11.0617 16.8235C10.5074 16.054 10.0612 15.2845 9.73673 14.5218C9.41224 13.7523 9.25 13.0165 9.25 12.3145C9.25 11.8555 9.33112 11.4168 9.49336 11.0118C9.65561 10.6 9.91249 10.222 10.2708 9.8845C10.7034 9.45925 11.1766 9.25 11.6769 9.25C11.8662 9.25 12.0555 9.2905 12.2245 9.3715C12.4002 9.4525 12.5557 9.574 12.6774 9.7495L14.2457 11.9568C14.3674 12.1255 14.4553 12.2808 14.5161 12.4293C14.577 12.571 14.6108 12.7128 14.6108 12.841C14.6108 13.003 14.5635 13.165 14.4688 13.3202C14.3809 13.4755 14.2525 13.6375 14.0903 13.7995L13.5765 14.3327C13.5021 14.407 13.4683 14.4948 13.4683 14.6028C13.4683 14.6568 13.4751 14.704 13.4886 14.758C13.5089 14.812 13.5292 14.8525 13.5427 14.893C13.6644 15.1157 13.8739 15.406 14.1714 15.757C14.4756 16.108 14.8001 16.4658 15.1516 16.8235C15.5167 17.1813 15.8682 17.512 16.2265 17.8157C16.578 18.1127 16.8687 18.3152 17.0985 18.4367C17.1323 18.4502 17.1729 18.4705 17.2202 18.4907C17.2743 18.511 17.3284 18.5177 17.3892 18.5177C17.5041 18.5177 17.592 18.4773 17.6664 18.403L18.1801 17.8968C18.3491 17.728 18.5114 17.5998 18.6669 17.5188C18.8224 17.4243 18.9778 17.377 19.1468 17.377C19.2753 17.377 19.4105 17.404 19.5592 17.4648C19.7079 17.5255 19.8634 17.6133 20.0324 17.728L22.27 19.3143C22.4458 19.4358 22.5675 19.5775 22.6418 19.7462C22.7094 19.915 22.75 20.0838 22.75 20.2728Z" stroke="#0050AF" stroke-width="2" stroke-miterlimit="10" />
</svg>